<?xml version="1.0" encoding="UTF-8"?>
<!-- Created with Inkscape (http://www.inkscape.org/) -->
<svg width="54.541mm" height="54.541mm" version="1.1" viewBox="0 0 54.541 54.541" xmlns="http://www.w3.org/2000/svg">
 <circle cx="27.27" cy="27.27" r="27.27" stroke-width=".37593"/>
 <g transform="translate(-65.841 -97.241)" fill="#fff">
  <g stroke-width=".26458" aria-label="P">
   <path d="m90.595 125.63h9.2164q2.271 0 3.8365-1.5214 1.5875-1.5434 1.5875-4.3436 0-2.0946-1.6537-3.7483-1.6537-1.6757-3.7703-1.6757h-13.626v28.575h-1.5875v-30.163h15.214q2.7781 0 4.8948 2.1387 2.1167 2.1387 2.1167 4.8728 0 3.3735-2.0505 5.424-2.0505 2.0285-4.961 2.0285h-9.2164zm0 3.175h9.2164q2.2931 0 4.2334-1.1024 1.9623-1.1245 3.153-3.2191 1.2127-2.0946 1.2127-4.7184 0-3.3955-2.6018-5.9973-2.5797-2.6018-5.9973-2.6018h-16.801v31.75h-1.5875v-33.338h18.389q2.6679 0 5.0271 1.4111 2.3592 1.4111 3.7483 3.7704 1.4111 2.3592 1.4111 5.0051 0 2.9986-1.4111 5.4681-1.4111 2.4474-3.7483 3.8144-2.3151 1.345-5.0271 1.345h-9.2164zm0 3.175h9.2164q2.3592 0 4.52-0.92605 2.1608-0.9481 3.7483-2.5356 1.6096-1.6096 2.5577-3.8806 0.9481-2.2931 0.9481-4.8728 0-3.0868-1.6096-5.7988-1.6096-2.734-4.3436-4.3436-2.712-1.6316-5.8209-1.6316h-19.976v34.925h-1.5875v-36.513h21.564q3.5278 0 6.6146 1.8521 3.0868 1.8301 4.9169 4.9169 1.83 3.0868 1.83 6.5926 0 3.1309-1.0804 5.7768-1.0804 2.6238-2.9104 4.3657-1.83 1.7419-4.2554 2.712-2.4254 0.9481-5.1153 0.9481h-9.2164zm-1.2347 10.936h-1.5875v-26.988h12.039q1.5655 0 2.69 1.1465 1.1465 1.1465 1.1465 2.69 0 4.2775-3.8365 4.2775h-9.2164v-1.5875h9.2164q1.0583 0 1.6537-0.59532 0.59532-0.59532 0.59532-2.0946 0-0.97015-0.66146-1.6096-0.63942-0.63942-1.5875-0.63942h-10.451z"/>
  </g>
 </g>
</svg>
